<svg width="15" height="14" viewBox="0 0 15 14" fill="none" xmlns="http://www.w3.org/2000/svg">
<g clip-path="url(#clip0_1_87)">
<path d="M14.6697 7.16077C14.6697 6.68494 14.6304 6.20653 14.5464 5.7384H7.81014V8.434H11.6677C11.5076 9.30333 10.9933 10.0724 10.2401 10.5611V12.3102H12.5415C13.893 11.091 14.6697 9.29052 14.6697 7.16077Z" fill="#4285F4"/>
<path d="M7.81014 14.0002C9.73626 14.0002 11.3606 13.3803 12.5441 12.3103L10.2427 10.5613C9.60242 10.9883 8.77579 11.23 7.81273 11.23C5.94957 11.23 4.36981 9.99796 3.80299 8.34155H1.42811V10.1446C2.64048 12.5084 5.10983 14.0002 7.81014 14.0002Z" fill="#34A853"/>
<path d="M3.80059 8.34136C3.50144 7.47196 3.50144 6.53058 3.80059 5.6612V3.85815H1.42833C0.4154 5.83611 0.4154 8.16643 1.42833 10.1444L3.80059 8.34136Z" fill="#FBBC04"/>
<path d="M7.81014 2.77027C8.82829 2.75484 9.81235 3.13036 10.5497 3.81969L12.5888 1.82116C11.2977 0.632845 9.58408 -0.0204713 7.81014 0.000105509C5.10983 0.000105509 2.64048 1.49193 1.42811 3.85827L3.80037 5.66132C4.36457 4.00231 5.94694 2.77027 7.81014 2.77027Z" fill="#EA4335"/>
</g>
<defs>
<clipPath id="clip0_1_87">
<rect width="14" height="14" fill="white" transform="translate(0.669998)"/>
</clipPath>
</defs>
</svg>
